<svg width="100" height="100" viewBox="0 0 100 100" fill="none" xmlns="http://www.w3.org/2000/svg">
<g clip-path="url(#clip0)">
<path d="M49.9994 78.4333L67.4577 91.6667L95.8327 54.1667M33.3327 45.8333C38.858 45.8333 44.1571 43.6384 48.0641 39.7314C51.9711 35.8244 54.166 30.5253 54.166 25C54.166 19.4746 51.9711 14.1756 48.0641 10.2686C44.1571 6.36159 38.858 4.16666 33.3327 4.16666C27.8073 4.16666 22.5083 6.36159 18.6013 10.2686C14.6943 14.1756 12.4993 19.4746 12.4993 25C12.4993 30.5253 14.6943 35.8244 18.6013 39.7314C22.5083 43.6384 27.8073 45.8333 33.3327 45.8333V45.8333ZM61.0119 65.4C59.6649 61.2102 57.3529 57.3953 54.2619 54.2625C49.0494 49 41.7202 45.8333 33.3327 45.8333C16.666 45.8333 4.16602 58.3333 4.16602 75V95.8333H45.8327L61.0119 65.4Z" stroke="#444444" stroke-width="10.8333"/>
</g>
<defs>
<clipPath id="clip0">
<rect width="100" height="100" fill="white"/>
</clipPath>
</defs>
</svg>
