<svg width="100" height="100" viewBox="0 0 100 100" fill="none" xmlns="http://www.w3.org/2000/svg">
<g clip-path="url(#clip0)">
<path d="M50 0L12.5 18.6812V62.6375C12.5 72.5831 16.4509 82.1214 23.4835 89.154C30.5161 96.1866 40.0544 100.137 50 100.137C59.9456 100.137 69.4839 96.1866 76.5165 89.154C83.5491 82.1214 87.5 72.5831 87.5 62.6375V18.6812L50 0ZM71.3438 85.3562L50 74.725V81.6875L65.7375 89.5281C60.9964 92.2896 55.6119 93.7545 50.1252 93.7754C44.6385 93.7963 39.2429 92.3725 34.4809 89.6473C29.7189 86.922 25.7581 82.9912 22.9968 78.25C20.2354 73.5088 18.7707 68.1242 18.75 62.6375V22.5312L50 6.9625L81.25 22.5312V34.25L50 18.6812V25.6438L81.25 41.2125V52.9312L50 37.3625V44.325L81.25 59.8938V62.6375C81.2514 65.4762 80.8624 68.3017 80.0938 71.0344L50 56.0438V63.0063L77.7969 76.8531C76.1481 80.0358 73.9654 82.9119 71.3438 85.3562Z" fill="#444444"/>
</g>
<defs>
<clipPath id="clip0">
<rect width="100" height="100" fill="white"/>
</clipPath>
</defs>
</svg>
