<svg width="21" height="13" viewBox="0 0 21 13" fill="none" xmlns="http://www.w3.org/2000/svg">
<path fill-rule="evenodd" clip-rule="evenodd" d="M0.4375 6.50005C0.4375 6.30943 0.513225 6.12661 0.648017 5.99182C0.782809 5.85703 0.965626 5.7813 1.15625 5.7813H18.1087L13.5849 1.25893C13.4499 1.12397 13.3741 0.940919 13.3741 0.750054C13.3741 0.559188 13.4499 0.37614 13.5849 0.241178C13.7198 0.106216 13.9029 0.0303955 14.0938 0.0303955C14.2846 0.0303955 14.4677 0.106216 14.6026 0.241178L20.3526 5.99118C20.4196 6.05795 20.4727 6.13726 20.5089 6.22458C20.5451 6.3119 20.5638 6.40551 20.5638 6.50005C20.5638 6.59459 20.5451 6.68821 20.5089 6.77553C20.4727 6.86285 20.4196 6.94216 20.3526 7.00893L14.6026 12.7589C14.4677 12.8939 14.2846 12.9697 14.0938 12.9697C13.9029 12.9697 13.7198 12.8939 13.5849 12.7589C13.4499 12.624 13.3741 12.4409 13.3741 12.2501C13.3741 12.0592 13.4499 11.8761 13.5849 11.7412L18.1087 7.2188H1.15625C0.965626 7.2188 0.782809 7.14308 0.648017 7.00829C0.513225 6.8735 0.4375 6.69068 0.4375 6.50005Z" fill="white"/>
</svg>
