<svg width="75" height="75" viewBox="0 0 75 75" fill="none" xmlns="http://www.w3.org/2000/svg">
<path d="M47.2192 49.0137C47.165 48.9382 47.0935 48.8769 47.0107 48.8348C46.9278 48.7927 46.8361 48.7712 46.7432 48.772H43.5059C43.0298 48.772 42.7515 49.314 43.0298 49.7021L48.4351 57.1802C48.6694 57.5024 49.1455 57.5024 49.3799 57.1802L57.7441 45.6079C58.0225 45.2197 57.7441 44.6777 57.2681 44.6777H54.0234C53.833 44.6777 53.6572 44.7656 53.5474 44.9194L48.8965 51.3501L47.2192 49.0137ZM50.3906 22.4121V18.8965C50.3906 18.5742 50.127 18.3105 49.8047 18.3105H21.6797C21.3574 18.3105 21.0938 18.5742 21.0938 18.8965V22.4121C21.0938 22.7344 21.3574 22.998 21.6797 22.998H49.8047C50.127 22.998 50.3906 22.7344 50.3906 22.4121ZM21.6797 28.8574C21.3574 28.8574 21.0938 29.1211 21.0938 29.4434V32.959C21.0938 33.2812 21.3574 33.5449 21.6797 33.5449H35.1562C35.4785 33.5449 35.7422 33.2812 35.7422 32.959V29.4434C35.7422 29.1211 35.4785 28.8574 35.1562 28.8574H21.6797ZM35.1562 62.4023H15.2344V10.8398H56.25V32.5195C56.25 32.8418 56.5137 33.1055 56.8359 33.1055H60.9375C61.2598 33.1055 61.5234 32.8418 61.5234 32.5195V7.91016C61.5234 6.61377 60.4761 5.56641 59.1797 5.56641H12.3047C11.0083 5.56641 9.96094 6.61377 9.96094 7.91016V65.332C9.96094 66.6284 11.0083 67.6758 12.3047 67.6758H35.1562C35.4785 67.6758 35.7422 67.4121 35.7422 67.0898V62.9883C35.7422 62.666 35.4785 62.4023 35.1562 62.4023ZM64.6436 38.9062L50.5811 34.021C50.5151 33.999 50.4565 33.9917 50.3906 33.9917C50.3247 33.9917 50.2588 33.999 50.2002 34.021L36.1377 38.9062C36.0228 38.9453 35.923 39.0192 35.8521 39.1176C35.7812 39.2161 35.7428 39.3342 35.7422 39.4556V57.8467C35.7422 58.0298 35.8228 58.1982 35.9692 58.3081L50.0317 69.3091C50.1343 69.3896 50.2661 69.4336 50.3906 69.4336C50.5151 69.4336 50.647 69.3896 50.7495 69.3091L64.812 58.3081C64.9512 58.1982 65.0391 58.0298 65.0391 57.8467V39.4556C65.0391 39.2065 64.8779 38.9868 64.6436 38.9062ZM60.498 55.9351L50.3906 63.8379L40.2832 55.9351V42.2607L50.3906 38.7451L60.498 42.2607V55.9351Z" fill="#444444"/>
</svg>
