<svg width="75" height="75" viewBox="0 0 75 75" fill="none" xmlns="http://www.w3.org/2000/svg">
<path d="M51.9727 15.3809L52.002 15.3662H52.0166L37.5 7.03125L22.9907 15.3662H22.9761L23.0273 15.3882L11.0962 22.2656V52.7344L37.5 67.9688L63.9038 52.7344V22.2656L51.9727 15.3809ZM35.354 61.7871L24.873 55.7373V45.5127L15.3809 40.1221V27.312L35.354 38.833V61.7871ZM17.4463 23.5474L27.312 17.8491L37.4854 23.6865L47.6733 17.8345L57.5757 23.5474L37.5146 35.1196L17.4463 23.5474ZM59.6191 40.1587L50.1855 45.5127V55.7007L39.646 61.7798V38.8477L59.6191 27.3267V40.1587Z" fill="#444444"/>
</svg>
