<svg width="25" height="25" viewBox="0 0 25 25" fill="none" xmlns="http://www.w3.org/2000/svg">
<path d="M12.4999 4.66666C11.7129 4.66666 10.9436 4.90003 10.2892 5.33727C9.63484 5.7745 9.12482 6.39596 8.82365 7.12306C8.52248 7.85016 8.44368 8.65024 8.59721 9.42212C8.75075 10.194 9.12973 10.903 9.68623 11.4595C10.2427 12.016 10.9517 12.395 11.7236 12.5485C12.4955 12.7021 13.2956 12.6233 14.0227 12.3221C14.7498 12.0209 15.3712 11.5109 15.8085 10.8565C16.2457 10.2022 16.4791 9.43283 16.4791 8.64582C16.4791 7.59048 16.0599 6.57837 15.3136 5.83213C14.5674 5.08589 13.5553 4.66666 12.4999 4.66666ZM12.4999 11.2361C11.9876 11.2361 11.4868 11.0842 11.0608 10.7996C10.6349 10.5149 10.3029 10.1104 10.1068 9.63708C9.91076 9.16377 9.85947 8.64295 9.95941 8.14048C10.0594 7.63802 10.3061 7.17648 10.6683 6.81422C11.0306 6.45196 11.4921 6.20526 11.9946 6.10532C12.497 6.00537 13.0179 6.05667 13.4912 6.25272C13.9645 6.44877 14.369 6.78077 14.6537 7.20674C14.9383 7.63271 15.0902 8.13351 15.0902 8.64582C15.0884 9.3316 14.8146 9.98867 14.3291 10.4729C13.8435 10.9572 13.1857 11.2292 12.4999 11.2292V11.2361Z" fill="white"/>
<path d="M12.4999 1.38889C10.3368 1.39069 8.26238 2.24839 6.72962 3.77465C5.19686 5.3009 4.33034 7.37169 4.31934 9.53472C4.31934 12.7778 6.13878 15.4931 7.47211 17.4722L7.71517 17.8333C9.04175 19.756 10.4649 21.6102 11.9791 23.3889L12.5068 24.0069L13.0346 23.3889C14.5486 21.6101 15.9717 19.7558 17.2985 17.8333L17.5416 17.4653C18.8679 15.4861 20.6874 12.7778 20.6874 9.53472C20.6764 7.37049 19.8089 5.29865 18.2746 3.7722C16.7404 2.24574 14.6642 1.38886 12.4999 1.38889ZM16.3818 16.6667L16.1318 17.0347C14.9374 18.8264 13.3541 20.8333 12.4999 21.8264C11.6804 20.8333 10.0624 18.8264 8.86795 17.0347L8.62489 16.6667C7.39572 14.8333 5.70822 12.3264 5.70822 9.50694C5.70822 8.61505 5.8839 7.73189 6.22521 6.90788C6.56652 6.08388 7.06679 5.33517 7.69746 4.70451C8.32812 4.07384 9.07683 3.57357 9.90083 3.23226C10.7248 2.89095 11.608 2.71527 12.4999 2.71527C13.3918 2.71527 14.2749 2.89095 15.0989 3.23226C15.923 3.57357 16.6717 4.07384 17.3023 4.70451C17.933 5.33517 18.4333 6.08388 18.7746 6.90788C19.1159 7.73189 19.2916 8.61505 19.2916 9.50694C19.2916 12.3542 17.611 14.8611 16.3818 16.6667Z" fill="white"/>
</svg>
