<svg width="25" height="25" viewBox="0 0 25 25" fill="none" xmlns="http://www.w3.org/2000/svg">
<path d="M19.2568 24.6111C19.0233 24.6104 18.7905 24.5848 18.5624 24.5347C14.2197 23.6364 10.219 21.5301 7.02068 18.4583C3.89059 15.3798 1.71971 11.4601 0.770684 7.17359C0.658782 6.63936 0.686247 6.08533 0.850437 5.56478C1.01463 5.04424 1.31002 4.57471 1.70818 4.20137L4.48596 1.52776C4.62784 1.39358 4.79642 1.29084 4.9807 1.22622C5.16497 1.1616 5.3608 1.13657 5.55541 1.15276C5.75719 1.17381 5.95191 1.23881 6.12587 1.34319C6.29984 1.44757 6.44882 1.58879 6.56235 1.75693L10.0346 6.88887C10.1648 7.088 10.2276 7.32366 10.2139 7.56118C10.2001 7.79871 10.1105 8.02554 9.95818 8.20831L8.21513 10.2916C8.90933 11.8281 9.89245 13.2167 11.111 14.3819C12.3216 15.5894 13.7525 16.5536 15.3262 17.2222L17.486 15.5069C17.6674 15.3636 17.8881 15.2788 18.1188 15.2639C18.3495 15.249 18.5793 15.3047 18.7776 15.4236L24.0207 18.8125C24.2006 18.9199 24.3539 19.0667 24.469 19.2417C24.5842 19.4168 24.6583 19.6157 24.6856 19.8234C24.713 20.0312 24.6931 20.2425 24.6272 20.4414C24.5614 20.6404 24.4513 20.8218 24.3054 20.9722L21.5971 23.6528C21.2894 23.9589 20.9243 24.2012 20.5226 24.3656C20.121 24.5301 19.6908 24.6135 19.2568 24.6111ZM5.4443 2.52776L2.66652 5.20137C2.44253 5.41009 2.27672 5.67351 2.1854 5.96573C2.09408 6.25796 2.08039 6.56892 2.14568 6.86804C3.02813 10.8904 5.0566 14.571 7.98596 17.4653C10.9958 20.3552 14.7607 22.3364 18.8471 23.1805C19.1564 23.2452 19.4769 23.2321 19.7799 23.1424C20.0829 23.0527 20.3589 22.8892 20.5832 22.6666L23.2915 19.9861L18.229 16.7153L15.9096 18.5625C15.8208 18.6328 15.7161 18.6803 15.6048 18.7008C15.4934 18.7214 15.3787 18.7144 15.2707 18.6805C13.3448 17.9709 11.5995 16.8446 10.1596 15.3819C8.67024 13.9911 7.51417 12.2819 6.77763 10.3819C6.74647 10.2669 6.74543 10.1458 6.77462 10.0303C6.80381 9.91471 6.86224 9.80863 6.9443 9.7222L8.81929 7.47915L5.4443 2.52776Z" fill="white"/>
</svg>
