<svg width="100" height="100" viewBox="0 0 100 100" fill="none" xmlns="http://www.w3.org/2000/svg">
<path d="M89.209 48.25L51.709 10.75C50.209 9.25001 48.1256 8.33334 45.834 8.33334H16.6673C12.084 8.33334 8.33398 12.0833 8.33398 16.6667V45.8333C8.33398 48.125 9.25065 50.2083 10.7923 51.75L48.2923 89.25C49.7923 90.75 51.8756 91.6667 54.1673 91.6667C56.459 91.6667 58.5423 90.75 60.0423 89.2083L89.209 60.0417C90.7506 58.5417 91.6673 56.4583 91.6673 54.1667C91.6673 51.875 90.709 49.75 89.209 48.25ZM54.1673 83.375L16.6673 45.8333V16.6667H45.834V16.625L83.334 54.125L54.1673 83.375Z" fill="#444444"/>
<path d="M27.084 33.3333C30.5358 33.3333 33.334 30.5351 33.334 27.0833C33.334 23.6316 30.5358 20.8333 27.084 20.8333C23.6322 20.8333 20.834 23.6316 20.834 27.0833C20.834 30.5351 23.6322 33.3333 27.084 33.3333Z" fill="#444444"/>
<path d="M37.084 52.2917C37.084 54.6667 38.0423 56.75 39.584 58.3333L54.1673 72.9167L68.7507 58.3333C70.2276 56.7065 71.0219 54.5737 70.9689 52.3771C70.9158 50.1804 70.0196 48.0885 68.4659 46.5348C66.9122 44.9811 64.8202 44.0848 62.6236 44.0318C60.427 43.9788 58.2942 44.7731 56.6673 46.25L54.1673 48.75L51.6673 46.2917C50.1257 44.7083 47.959 43.75 45.6257 43.75C40.9173 43.75 37.084 47.5833 37.084 52.2917Z" fill="#444444"/>
</svg>
