<svg width="75" height="75" viewBox="0 0 75 75" fill="none" xmlns="http://www.w3.org/2000/svg">
<path d="M57.5171 64.2407L65.3101 56.4404C66.2622 55.4883 66.7969 54.2139 66.7969 52.8662C66.7969 51.5186 66.2695 50.2441 65.3101 49.292L56.9238 40.8911C55.9717 39.939 54.6899 39.4043 53.3423 39.4043C51.9873 39.4043 50.7202 39.9316 49.7607 40.8911L43.1909 47.4536C39.7076 45.9586 36.5427 43.8106 33.8672 41.1255C31.1645 38.4375 29.0332 35.2954 27.5244 31.8091L34.0942 25.2466C35.0464 24.2944 35.5811 23.02 35.5811 21.6724C35.5835 21.0076 35.4533 20.3491 35.198 19.7354C34.9427 19.1216 34.5674 18.565 34.0942 18.0981L25.708 9.68994C24.7559 8.73779 23.4741 8.20312 22.1265 8.20312C20.7715 8.20312 19.5044 8.73047 18.5449 9.68994L10.752 17.4829C9.12598 19.1089 8.1958 21.3501 8.1958 23.6499C8.1958 24.126 8.23242 24.5874 8.31299 25.0561C9.90967 34.7534 15.0732 44.3774 22.8369 52.1484C30.6152 59.9121 40.2393 65.0684 49.9438 66.6797C52.6978 67.1411 55.5322 66.2183 57.5171 64.2407ZM50.8154 61.4868C42.1802 60.0586 33.5669 55.415 26.5723 48.4204C19.5776 41.4258 14.9341 32.8198 13.5059 24.1846C13.3228 23.1006 13.689 21.9873 14.4727 21.1963L22.1265 13.5425L30.249 21.6577L21.46 30.4321L21.394 30.498L21.98 32.0801C23.7436 36.8769 26.5292 41.2329 30.1437 44.8461C33.7582 48.4594 38.1151 51.2434 42.9126 53.0054L44.4946 53.5913L53.335 44.7437L61.4575 52.8589L53.8037 60.5127C53.0127 61.3037 51.8994 61.6699 50.8154 61.4868Z" fill="#444444"/>
</svg>
