<svg width="75" height="75" viewBox="0 0 75 75" fill="none" xmlns="http://www.w3.org/2000/svg">
<path d="M64.4531 13.4766H52.1484V8.78906C52.1484 8.4668 51.8848 8.20312 51.5625 8.20312H47.4609C47.1387 8.20312 46.875 8.4668 46.875 8.78906V13.4766H28.125V8.78906C28.125 8.4668 27.8613 8.20312 27.5391 8.20312H23.4375C23.1152 8.20312 22.8516 8.4668 22.8516 8.78906V13.4766H10.5469C9.25049 13.4766 8.20312 14.5239 8.20312 15.8203V64.4531C8.20312 65.7495 9.25049 66.7969 10.5469 66.7969H64.4531C65.7495 66.7969 66.7969 65.7495 66.7969 64.4531V15.8203C66.7969 14.5239 65.7495 13.4766 64.4531 13.4766ZM61.5234 61.5234H13.4766V33.6914H61.5234V61.5234ZM13.4766 28.7109V18.75H22.8516V22.2656C22.8516 22.5879 23.1152 22.8516 23.4375 22.8516H27.5391C27.8613 22.8516 28.125 22.5879 28.125 22.2656V18.75H46.875V22.2656C46.875 22.5879 47.1387 22.8516 47.4609 22.8516H51.5625C51.8848 22.8516 52.1484 22.5879 52.1484 22.2656V18.75H61.5234V28.7109H13.4766Z" fill="#444444"/>
</svg>
