<svg width="25" height="25" viewBox="0 0 25 25" fill="none" xmlns="http://www.w3.org/2000/svg">
<path d="M12.5002 4.66666C11.7132 4.66666 10.9438 4.90003 10.2895 5.33727C9.63509 5.7745 9.12507 6.39596 8.82389 7.12306C8.52272 7.85016 8.44392 8.65024 8.59746 9.42212C8.75099 10.194 9.12997 10.903 9.68647 11.4595C10.243 12.016 10.952 12.395 11.7239 12.5485C12.4958 12.7021 13.2958 12.6233 14.0229 12.3221C14.75 12.0209 15.3715 11.5109 15.8087 10.8565C16.246 10.2022 16.4793 9.43283 16.4793 8.64582C16.4793 7.59048 16.0601 6.57837 15.3139 5.83213C14.5676 5.08589 13.5555 4.66666 12.5002 4.66666ZM12.5002 11.2361C11.9879 11.2361 11.4871 11.0842 11.0611 10.7996C10.6351 10.5149 10.3031 10.1104 10.1071 9.63708C9.91101 9.16377 9.85971 8.64295 9.95966 8.14048C10.0596 7.63802 10.3063 7.17648 10.6686 6.81422C11.0308 6.45196 11.4924 6.20526 11.9948 6.10532C12.4973 6.00537 13.0181 6.05667 13.4914 6.25272C13.9647 6.44877 14.3693 6.78077 14.6539 7.20674C14.9385 7.63271 15.0904 8.13351 15.0904 8.64582C15.0886 9.3316 14.8149 9.98867 14.3293 10.4729C13.8437 10.9572 13.1859 11.2292 12.5002 11.2292V11.2361Z" fill="#333333"/>
<path d="M12.4999 1.38889C10.3368 1.39069 8.26238 2.24839 6.72962 3.77465C5.19686 5.3009 4.33034 7.37169 4.31934 9.53472C4.31934 12.7778 6.13878 15.4931 7.47211 17.4722L7.71517 17.8333C9.04175 19.756 10.4649 21.6102 11.9791 23.3889L12.5068 24.0069L13.0346 23.3889C14.5486 21.6101 15.9717 19.7558 17.2985 17.8333L17.5416 17.4653C18.8679 15.4861 20.6874 12.7778 20.6874 9.53472C20.6764 7.37049 19.8089 5.29865 18.2746 3.7722C16.7404 2.24574 14.6642 1.38886 12.4999 1.38889ZM16.3818 16.6667L16.1318 17.0347C14.9374 18.8264 13.3541 20.8333 12.4999 21.8264C11.6804 20.8333 10.0624 18.8264 8.86795 17.0347L8.62489 16.6667C7.39572 14.8333 5.70822 12.3264 5.70822 9.50694C5.70822 8.61505 5.8839 7.73189 6.22521 6.90788C6.56652 6.08388 7.06679 5.33517 7.69746 4.70451C8.32812 4.07384 9.07683 3.57357 9.90083 3.23226C10.7248 2.89095 11.608 2.71527 12.4999 2.71527C13.3918 2.71527 14.2749 2.89095 15.0989 3.23226C15.923 3.57357 16.6717 4.07384 17.3023 4.70451C17.933 5.33517 18.4333 6.08388 18.7746 6.90788C19.1159 7.73189 19.2916 8.61505 19.2916 9.50694C19.2916 12.3542 17.611 14.8611 16.3818 16.6667Z" fill="#333333"/>
</svg>
