<svg width="30" height="22" viewBox="0 0 30 22" fill="none" xmlns="http://www.w3.org/2000/svg">
<path d="M1.66667 13.1894C2.58714 13.1894 3.33334 12.4084 3.33334 11.445C3.33334 10.4817 2.58714 9.70068 1.66667 9.70068C0.746193 9.70068 0 10.4817 0 11.445C0 12.4084 0.746193 13.1894 1.66667 13.1894Z" fill="#333333"/>
<path d="M28.4332 9.70068H8.23317C7.36792 9.70068 6.6665 10.4348 6.6665 11.3404V11.5497C6.6665 12.4553 7.36792 13.1894 8.23317 13.1894H28.4332C29.2984 13.1894 29.9998 12.4553 29.9998 11.5497V11.3404C29.9998 10.4348 29.2984 9.70068 28.4332 9.70068Z" fill="#333333"/>
<path d="M28.4333 18.4225H1.56667C0.701421 18.4225 0 19.1566 0 20.0622V20.2715C0 21.1771 0.701421 21.9112 1.56667 21.9112H28.4333C29.2986 21.9112 30 21.1771 30 20.2715V20.0622C30 19.1566 29.2986 18.4225 28.4333 18.4225Z" fill="#333333"/>
<path d="M28.4333 0.978912H1.56667C0.701421 0.978912 0 1.71303 0 2.61861V2.82793C0 3.73351 0.701421 4.46762 1.56667 4.46762H28.4333C29.2986 4.46762 30 3.73351 30 2.82793V2.61861C30 1.71303 29.2986 0.978912 28.4333 0.978912Z" fill="#333333"/>
</svg>
