<svg width="30" height="26" viewBox="0 0 30 26" fill="none" xmlns="http://www.w3.org/2000/svg">
<path d="M1.66667 15.0559C2.58714 15.0559 3.33334 14.141 3.33334 13.0123C3.33334 11.8836 2.58714 10.9686 1.66667 10.9686C0.746193 10.9686 0 11.8836 0 13.0123C0 14.141 0.746193 15.0559 1.66667 15.0559Z" fill="white"/>
<path d="M28.4334 10.9686H8.23342C7.36817 10.9686 6.66675 11.8287 6.66675 12.8896V13.1349C6.66675 14.1959 7.36817 15.0559 8.23342 15.0559H28.4334C29.2987 15.0559 30.0001 14.1959 30.0001 13.1349V12.8896C30.0001 11.8287 29.2987 10.9686 28.4334 10.9686Z" fill="white"/>
<path d="M28.4333 21.187H1.56667C0.701421 21.187 0 22.047 0 23.108V23.3532C0 24.4142 0.701421 25.2743 1.56667 25.2743H28.4333C29.2986 25.2743 30 24.4142 30 23.3532V23.108C30 22.047 29.2986 21.187 28.4333 21.187Z" fill="white"/>
<path d="M28.4333 0.750244H1.56667C0.701421 0.750244 0 1.61033 0 2.67129V2.91653C0 3.9775 0.701421 4.83758 1.56667 4.83758H28.4333C29.2986 4.83758 30 3.9775 30 2.91653V2.67129C30 1.61033 29.2986 0.750244 28.4333 0.750244Z" fill="white"/>
</svg>
