<svg width="28" height="50" viewBox="0 0 28 50" fill="none" xmlns="http://www.w3.org/2000/svg">
<path fill-rule="evenodd" clip-rule="evenodd" d="M1.42257 48.8275C1.24796 48.6533 1.10942 48.4464 1.0149 48.2186C0.920372 47.9908 0.871715 47.7466 0.871715 47.5C0.871715 47.2534 0.920372 47.0092 1.0149 46.7814C1.10942 46.5536 1.24796 46.3467 1.42257 46.1725L22.5988 25L1.42256 3.82751C1.07049 3.47543 0.872696 2.99792 0.872696 2.50001C0.872696 2.0021 1.07049 1.52458 1.42256 1.17251C1.77464 0.820433 2.25215 0.622641 2.75006 0.622641C3.24797 0.622641 3.72549 0.820433 4.07756 1.17251L26.5776 23.6725C26.7522 23.8467 26.8907 24.0536 26.9852 24.2814C27.0798 24.5092 27.1284 24.7534 27.1284 25C27.1284 25.2466 27.0798 25.4908 26.9852 25.7186C26.8907 25.9464 26.7522 26.1533 26.5776 26.3275L4.07757 48.8275C3.9034 49.0021 3.69649 49.1407 3.46869 49.2352C3.2409 49.3297 2.99669 49.3784 2.75007 49.3784C2.50344 49.3784 2.25924 49.3297 2.03144 49.2352C1.80365 49.1407 1.59674 49.0021 1.42257 48.8275Z" fill="white"/>
</svg>
