<svg width="28" height="28" viewBox="0 0 28 28" fill="none" xmlns="http://www.w3.org/2000/svg">
<path d="M12.701 3.92776C14.3857 3.92622 16.0331 4.4244 17.4347 5.35929C18.8363 6.29418 19.9291 7.62376 20.5749 9.17985C21.2207 10.7359 21.3904 12.4486 21.0627 14.1012C20.735 15.7538 19.9244 17.272 18.7337 18.4639C17.5429 19.6557 16.0254 20.4676 14.3731 20.7969C12.7208 21.1261 11.008 20.9579 9.45135 20.3135C7.89468 19.6692 6.5641 18.5776 5.62793 17.1768C4.69176 15.7761 4.19207 14.1292 4.19207 12.4444C4.20228 10.1902 5.10179 8.03101 6.69508 6.43626C8.28838 4.84151 10.4467 3.94003 12.701 3.92776ZM12.701 2.33331C10.7012 2.33331 8.74629 2.92632 7.08353 4.03734C5.42076 5.14837 4.1248 6.72751 3.35951 8.57507C2.59422 10.4226 2.39399 12.4556 2.78413 14.417C3.17427 16.3784 4.13726 18.18 5.55132 19.5941C6.96539 21.0081 8.76702 21.9711 10.7284 22.3613C12.6897 22.7514 14.7227 22.5512 16.5703 21.7859C18.4179 21.0206 19.997 19.7246 21.108 18.0619C22.2191 16.3991 22.8121 14.4442 22.8121 12.4444C22.8121 9.76279 21.7468 7.19099 19.8506 5.29479C17.9544 3.39859 15.3826 2.33331 12.701 2.33331Z" fill="#333333"/>
<path d="M27.2224 25.8922L21.4902 20.1211L20.3857 21.2178L26.118 26.9889C26.19 27.0614 26.2756 27.119 26.3698 27.1585C26.4641 27.1979 26.5652 27.2184 26.6674 27.2188C26.7696 27.2191 26.8709 27.1994 26.9655 27.1606C27.06 27.1218 27.146 27.0648 27.2185 26.9928C27.291 26.9208 27.3487 26.8352 27.3881 26.7409C27.4275 26.6466 27.448 26.5455 27.4484 26.4433C27.4488 26.3411 27.429 26.2399 27.3902 26.1453C27.3514 26.0507 27.2944 25.9648 27.2224 25.8922Z" fill="#333333"/>
</svg>
